<?xml version="1.0"?>
<svg xmlns="http://www.w3.org/2000/svg" viewBox="0 0 32 32">
    <path style="text-indent:0;text-align:start;line-height:normal;text-transform:none;block-progression:tb;-inkscape-font-specification:Sans" d="M 9 4 C 7.388785 4 6.1045101 5.1751552 5.28125 6.71875 C 4.4579899 8.2623448 4 10.284867 4 12.5 L 4 27 L 4 28 L 5 28 L 19 28 L 20 28 L 20 27 L 20 19.375 C 20.780485 20.338122 21.805449 21 23 21 C 24.611232 21 25.895502 19.824839 26.71875 18.28125 C 27.541998 16.737661 28 14.715185 28 12.5 C 28 10.284815 27.541998 8.2623395 26.71875 6.71875 C 25.895502 5.1751605 24.611232 4 23 4 L 9 4 z M 9 6 L 19.71875 6 C 19.561237 6.2278728 19.415001 6.4679679 19.28125 6.71875 C 18.458002 8.2623395 18 10.284815 18 12.5 C 18 12.670446 18.025869 12.831966 18.03125 13 L 18 13 L 18 26 L 6 26 L 6 12.5 C 6 10.573133 6.4380101 8.8271552 7.0625 7.65625 C 7.6869899 6.4853448 8.402215 6 9 6 z M 23 6 C 23.597907 6 24.313032 6.4853734 24.9375 7.65625 C 25.561968 8.8271266 26 10.57305 26 12.5 C 26 14.426951 25.561968 16.172873 24.9375 17.34375 C 24.313032 18.514627 23.597907 19 23 19 C 22.402093 19 21.686968 18.514627 21.0625 17.34375 C 20.438032 16.172873 20 14.426951 20 12.5 C 20 10.57305 20.438032 8.8271266 21.0625 7.65625 C 21.686968 6.4853734 22.402093 6 23 6 z M 23 10 C 22.447715 10 22 11.119288 22 12.5 C 22 13.880712 22.447715 15 23 15 C 23.552285 15 24 13.880712 24 12.5 C 24 11.119288 23.552285 10 23 10 z M 9 13 C 8.4477153 13 8 13.447715 8 14 C 8 14.552285 8.4477153 15 9 15 C 9.5522847 15 10 14.552285 10 14 C 10 13.447715 9.5522847 13 9 13 z M 12 13 C 11.447715 13 11 13.447715 11 14 C 11 14.552285 11.447715 15 12 15 C 12.552285 15 13 14.552285 13 14 C 13 13.447715 12.552285 13 12 13 z M 15 13 C 14.447715 13 14 13.447715 14 14 C 14 14.552285 14.447715 15 15 15 C 15.552285 15 16 14.552285 16 14 C 16 13.447715 15.552285 13 15 13 z" overflow="visible" font-family="Sans"/>
</svg>
