<?xml version="1.0"?>
<svg xmlns="http://www.w3.org/2000/svg" viewBox="0 0 24 24">
    <path d="M 15.15625 2 C 14.52725 2 11.439 3.5625 10.375 3.5625 C 10.112 3.5625 7.23575 3.3545 6.96875 3.4375 C 6.06875 3.7165 3.50875 6.664 3.09375 7.5 C 2.78475 8.123 3.4815 10.996 3.1875 11.625 C 2.9005 12.239 2.346 12.65975 2.125 13.34375 C 1.826 14.26775 2.624 16.8635 2.25 18.1875 C 1.877 19.5095 2.773 20.33075 4.125 20.59375 C 4.562 20.67775 6.62875 21.8125 7.71875 21.8125 C 9.34075 21.8125 10.8735 20.6425 12.4375 20.3125 C 12.8905 20.2175 18.19825 19.6255 18.65625 18.8125 C 19.15925 17.9195 20.29825 17.83075 20.65625 16.84375 C 20.91625 16.12375 20.9005 15.3525 20.8125 14.5625 C 20.7245 13.7685 20.49525 13.39575 20.15625 12.71875 C 19.76425 11.94175 20.20475 11.7985 20.59375 11.1875 C 20.83575 10.8075 20.2375 9.10275 20.0625 8.84375 C 19.9325 8.65175 20.29925 7.37375 20.28125 6.96875 C 20.24525 6.20575 19.734 5.9425 19.125 5.6875 C 18.326 5.3515 18.1105 5.03275 18.1875 4.21875 C 18.3505 2.47975 15.15625 2 15.15625 2 z M 14.6875 4.1875 C 14.6875 4.1875 15.63275 4.45825 15.84375 4.53125 C 16.00575 5.07325 16.06825 5.72725 16.03125 6.15625 C 15.99725 6.54625 16.497 7.81275 16.5 8.21875 C 16.506 9.17775 15.6105 9.95025 15.9375 10.90625 C 16.2255 11.75525 16.36975 12.434 15.34375 12.875 C 14.97375 13.034 13.6935 13.65 13.1875 13.75 C 12.4145 13.902 11.6805 14.256 11.6875 15.125 C 11.6915 15.596 10.904 16.8945 10.5 16.9375 C 10.19 16.9715 9.157 16.6475 8.875 16.8125 C 7.936 17.3625 6.36075 18.79775 5.21875 18.09375 C 4.85075 17.86775 4.6445 17.573 4.4375 17.25 C 4.5185 16.734 4.06725 13.901 4.15625 13.625 C 4.20025 13.491 4.349 13.29575 4.5 13.09375 C 4.679 12.85275 4.8875 12.5605 5.0625 12.1875 C 5.4755 11.3035 5.0395 8.28625 5.0625 8.15625 C 5.0925 8.11725 7.1975 5.537 7.4375 5.5 C 7.5975 5.475 10.092 5.625 10.375 5.625 C 11.671 5.625 14.5235 4.2535 14.6875 4.1875 z M 12.84375 6.96875 C 12.337508 6.9812871 11.631125 7.63425 11.40625 7.78125 C 11.08725 7.99025 10.518 8.0555 10.25 8.3125 C 9.914 9.1275 10.44 9.7555 10.5 10.1875 C 10.585 10.7865 10.07175 11.952 11.09375 12 C 11.59875 12.023 11.8755 11.549 12.1875 11.25 C 12.4925 10.957 13.90825 10.46625 13.90625 10.15625 C 14.15725 9.67725 13.859 8.691 13.625 8.5 C 13.128 8.094 13.6945 7.281 13.0625 7 C 13.000875 6.972625 12.91607 6.966959 12.84375 6.96875 z M 7.3125 12 C 6.9285 12 6.81675 12.7615 6.71875 12.9375 C 6.61475 13.1245 5.62025 13.618 6.03125 14.125 C 6.76425 15.027 7.88325 15.6015 8.03125 14.9375 C 8.18425 14.2495 9.2485 13.78225 8.9375 13.28125 C 8.4875 12.55625 8.0115 12 7.3125 12 z"/>
</svg>
