<?xml version="1.0"?>
<svg xmlns="http://www.w3.org/2000/svg" version="1" viewBox="0 0 24 24" enable-background="new 0 0 24 24">
    <path d="M 6 4 C 4.3 4 3 5.3 3 7 C 3 8.0625 3.5166016 8.9697266 4.3125 9.5 C 5.5572893 10.689446 11.994074 16.306574 12.1875 16.5 C 12.4875 16.7 13 17 13.5 17 L 17.1875 17 C 17.1875 17 22 16.9875 22 14.6875 L 13 12.90625 C 13 12.90625 10.3125 10.9 9.8125 10.5 C 8.8125 9.5 9 9.1 9 7 C 9 5.3 7.7 4 6 4 z M 6 6 C 6.6 6 7 6.4 7 7 C 7 7.6 6.6 8 6 8 C 5.4 8 5 7.6 5 7 C 5 6.4 5.4 6 6 6 z M 19.90625 9.03125 C 18.827148 8.9726562 18 9.3125 18 9.3125 L 13.09375 11.5 L 13.8125 12 L 17.09375 12.8125 L 22 9.6875 C 21.2875 9.2375 20.553711 9.0664062 19.90625 9.03125 z M 5 14 C 3.3 14 2 15.3 2 17 C 2 18.7 3.3 20 5 20 C 6.3937321 20 7.5149263 19.126623 7.875 17.875 L 7.90625 17.90625 C 7.90625 17.90625 7.9875 17 8.6875 17 L 10.90625 17 L 7.59375 14 L 5 14 z M 14 14 C 14.6 14 15 14.4 15 15 C 15 15.6 14.6 16 14 16 C 13.4 16 13 15.6 13 15 C 13 14.4 13.4 14 14 14 z M 5 16 C 5.6 16 6 16.4 6 17 C 6 17.6 5.6 18 5 18 C 4.4 18 4 17.6 4 17 C 4 16.4 4.4 16 5 16 z"/>
</svg>
